<svg xmlns="http://www.w3.org/2000/svg" width="175" height="59" fill="none" xmlns:v="https://vecta.io/nano"><mask id="A" maskUnits="userSpaceOnUse" x="0" y="0" width="175" height="59"><path d="M175 0H0v58.497h175V0z" fill="#fff"/></mask><g mask="url(#A)"><path d="M161.064 0H13.944c-.536 0-1.066 0-1.601.003l-1.344.019C10.017.033 9.037.12 8.068.28s-1.904.473-2.78.917-1.672 1.029-2.367 1.724-1.279 1.493-1.723 2.37S.446 7.106.284 8.075s-.25 1.946-.262 2.928L0 12.349v33.803L.022 47.5c.012.982.099 1.96.262 2.928a9.63 9.63 0 0 0 .914 2.785 9.08 9.08 0 0 0 1.723 2.361 9.22 9.22 0 0 0 2.367 1.724 9.8 9.8 0 0 0 2.78.922c.969.159 1.949.246 2.931.259l1.344.015 1.601.003h147.12l1.585-.003 1.349-.015a19.49 19.49 0 0 0 2.924-.259c.971-.168 1.912-.479 2.791-.922a9.21 9.21 0 0 0 2.365-1.724c.696-.692 1.279-1.488 1.728-2.361a9.63 9.63 0 0 0 .905-2.785 19.68 19.68 0 0 0 .272-2.928l.006-1.348.011-1.599V13.946l-.011-1.597-.006-1.346a19.68 19.68 0 0 0-.272-2.928c-.158-.969-.464-1.907-.905-2.784-.903-1.759-2.334-3.191-4.093-4.094a9.88 9.88 0 0 0-2.791-.917c-.966-.161-1.944-.248-2.924-.259l-1.349-.018L161.064 0z" fill="#a6a6a6"/><path d="M12.35 57.217c-.446 0-.88-.005-1.322-.015a18.55 18.55 0 0 1-2.734-.239c-.843-.145-1.66-.415-2.423-.801-.756-.383-1.446-.885-2.043-1.487-.605-.594-1.11-1.284-1.492-2.042a8.35 8.35 0 0 1-.794-2.424 18.12 18.12 0 0 1-.244-2.742l-.021-1.335V12.349l.021-1.308c.011-.917.092-1.833.242-2.738a8.43 8.43 0 0 1 .795-2.43A7.84 7.84 0 0 1 3.82 3.828c.601-.602 1.293-1.107 2.05-1.495.762-.385 1.577-.653 2.418-.796.907-.148 1.824-.228 2.743-.24l1.32-.017h150.291l1.336.018c.91.011 1.819.09 2.717.238.85.144 1.674.414 2.444.801a8.18 8.18 0 0 1 3.532 3.539c.381.76.645 1.573.782 2.412.152.912.237 1.835.255 2.759l.004 1.302.011 1.597v30.607l-.011 1.572-.006 1.36a18.65 18.65 0 0 1-.25 2.71c-.136.85-.403 1.674-.79 2.442a7.98 7.98 0 0 1-1.485 2.027 7.9 7.9 0 0 1-2.046 1.495c-.768.389-1.591.66-2.44.804a18.27 18.27 0 0 1-2.733.239l-1.313.015-1.585.003-148.714-.003z" fill="#000"/><path d="M36.223 29.688c.015-1.22.34-2.417.942-3.479a7.25 7.25 0 0 1 2.504-2.593 7.42 7.42 0 0 0-2.545-2.268c-1.014-.547-2.141-.851-3.292-.887-2.456-.258-4.836 1.469-6.088 1.469-1.275 0-3.202-1.444-5.277-1.401a7.77 7.77 0 0 0-6.541 3.989c-2.829 4.897-.719 12.094 1.99 16.052 1.356 1.938 2.94 4.103 5.013 4.027 2.029-.085 2.786-1.294 5.235-1.294 2.425 0 3.136 1.294 5.251 1.245 2.177-.036 3.548-1.947 4.856-3.904.974-1.381 1.724-2.907 2.221-4.522a6.99 6.99 0 0 1-3.103-2.574c-.759-1.144-1.165-2.487-1.166-3.86zm-3.995-11.83a7.13 7.13 0 0 0 1.63-5.105 7.25 7.25 0 0 0-4.691 2.427c-.588.669-1.039 1.448-1.326 2.291a6.78 6.78 0 0 0-.347 2.625 6.01 6.01 0 0 0 2.624-.575c.82-.388 1.542-.957 2.11-1.663zM61.864 39.69h-6.922l-1.663 4.908h-2.932l6.557-18.16h3.046l6.557 18.16h-2.982l-1.661-4.908zm-6.205-2.265h5.487l-2.705-7.967h-.076l-2.706 7.967zm25.008.554c0 4.114-2.202 6.758-5.526 6.758-.841.044-1.679-.15-2.415-.56a4.48 4.48 0 0 1-1.751-1.757h-.062v6.558h-2.718v-17.62h2.631v2.202h.05a4.7 4.7 0 0 1 1.784-1.753c.743-.412 1.583-.615 2.431-.588 3.361 0 5.576 2.657 5.576 6.76zm-2.794 0c0-2.681-1.385-4.443-3.499-4.443-2.076 0-3.473 1.799-3.473 4.443 0 2.668 1.397 4.454 3.473 4.454 2.114 0 3.499-1.749 3.499-4.454zm17.367 0c0 4.114-2.202 6.758-5.526 6.758-.842.044-1.679-.15-2.416-.56s-1.343-1.018-1.75-1.757h-.063v6.558h-2.717v-17.62h2.63v2.202h.05a4.71 4.71 0 0 1 1.785-1.753 4.7 4.7 0 0 1 2.431-.588c3.361 0 5.576 2.657 5.576 6.76zm-2.794 0c0-2.681-1.385-4.443-3.499-4.443-2.076 0-3.473 1.799-3.473 4.443 0 2.668 1.397 4.454 3.473 4.454 2.114 0 3.499-1.749 3.499-4.454zm12.425 1.559c.202 1.801 1.951 2.984 4.342 2.984 2.291 0 3.939-1.183 3.939-2.807 0-1.409-.994-2.253-3.348-2.832l-2.353-.567c-3.335-.805-4.883-2.365-4.883-4.895 0-3.134 2.73-5.286 6.608-5.286 3.837 0 6.468 2.152 6.556 5.286h-2.743c-.164-1.813-1.662-2.907-3.852-2.907s-3.687 1.107-3.687 2.718c0 1.284.957 2.04 3.297 2.618l2.001.491c3.726.881 5.274 2.378 5.274 5.034 0 3.398-2.706 5.526-7.011 5.526-4.027 0-6.746-2.078-6.922-5.363h2.782zm17.017-11.313v3.133h2.518v2.152h-2.518v7.299c0 1.134.504 1.663 1.611 1.663.299-.005.597-.026.894-.063v2.139a7.5 7.5 0 0 1-1.51.126c-2.681 0-3.726-1.007-3.726-3.575V33.51h-1.925v-2.152h1.925v-3.133h2.731zm3.976 9.754c0-4.166 2.453-6.784 6.279-6.784 3.839 0 6.281 2.618 6.281 6.784 0 4.177-2.429 6.784-6.281 6.784s-6.279-2.607-6.279-6.784zm9.791 0c0-2.858-1.309-4.545-3.512-4.545s-3.51 1.7-3.51 4.545c0 2.869 1.308 4.543 3.51 4.543s3.512-1.674 3.512-4.543zm5.01-6.621h2.592v2.253h.063a3.16 3.16 0 0 1 3.185-2.392 4.17 4.17 0 0 1 .931.102v2.542c-.395-.121-.808-.176-1.221-.164a2.73 2.73 0 0 0-1.154.204 2.74 2.74 0 0 0-.963.667c-.269.29-.472.634-.596 1.009s-.164.773-.119 1.166v7.853h-2.718v-13.24zm19.301 9.351c-.365 2.404-2.706 4.054-5.701 4.054-3.851 0-6.242-2.581-6.242-6.721 0-4.153 2.403-6.847 6.128-6.847 3.663 0 5.967 2.516 5.967 6.531v.931h-9.352v.164a3.45 3.45 0 0 0 .179 1.44 3.44 3.44 0 0 0 .756 1.239 3.45 3.45 0 0 0 1.198.819 3.46 3.46 0 0 0 1.429.253 3 3 0 0 0 1.838-.424c.551-.336.979-.84 1.22-1.439h2.58zm-9.187-3.951h6.62c.024-.438-.042-.877-.195-1.288a3.18 3.18 0 0 0-1.773-1.834c-.405-.167-.841-.248-1.28-.239a3.38 3.38 0 0 0-1.291.25c-.409.168-.782.416-1.095.728a3.35 3.35 0 0 0-.731 1.093c-.169.409-.256.847-.255 1.29zm-95.461-23.99c.57-.04 1.142.046 1.674.252a3.85 3.85 0 0 1 1.405.945 3.84 3.84 0 0 1 .866 1.454 3.85 3.85 0 0 1 .161 1.685c0 2.788-1.507 4.391-4.106 4.391h-3.152v-8.727h3.152zm-1.797 7.492h1.646a2.73 2.73 0 0 0 1.192-.195c.378-.153.718-.388.993-.689a2.76 2.76 0 0 0 .601-1.049 2.73 2.73 0 0 0 .091-1.205c.056-.402.021-.811-.1-1.198s-.328-.742-.603-1.041a2.73 2.73 0 0 0-.988-.684 2.75 2.75 0 0 0-1.186-.197h-1.646v6.258zm13.329-.544a2.67 2.67 0 0 1-1.08 1.471c-.522.348-1.15.502-1.773.434-.434.012-.865-.071-1.264-.243s-.754-.428-1.044-.752a3 3 0 0 1-.632-1.121 3.01 3.01 0 0 1-.102-1.283 3.04 3.04 0 0 1 .104-1.286c.127-.416.341-.8.629-1.127a3.04 3.04 0 0 1 1.04-.764 3.02 3.02 0 0 1 1.263-.263c1.833 0 2.938 1.252 2.938 3.32v.453h-4.65v.073c-.02.242.01.485.089.714s.205.44.371.617a1.74 1.74 0 0 0 .588.415c.223.095.463.143.706.141.311.037.626-.019.905-.161a1.57 1.57 0 0 0 .661-.638h1.251zm-4.571-2.122h3.326c.016-.221-.014-.443-.088-.652a1.6 1.6 0 0 0-.345-.56c-.152-.16-.337-.287-.542-.373s-.424-.126-.646-.121c-.225-.003-.448.04-.656.124a1.69 1.69 0 0 0-.556.37c-.159.159-.285.348-.369.556s-.127.431-.124.656zm8.802-2.812c1.481 0 2.449.689 2.576 1.85H72.41c-.12-.483-.593-.792-1.329-.792-.726 0-1.277.344-1.277.859 0 .393.333.641 1.047.804l1.094.254c1.252.291 1.839.829 1.839 1.797 0 1.239-1.155 2.067-2.728 2.067-1.566 0-2.588-.707-2.703-1.874h1.301c.112.278.314.51.574.659a1.34 1.34 0 0 0 .858.163c.81 0 1.386-.363 1.386-.889 0-.393-.309-.647-.969-.804l-1.148-.267c-1.252-.296-1.832-.858-1.832-1.838 0-1.167 1.069-1.989 2.558-1.989zm8.766 2.279c-.083-.341-.286-.642-.571-.847s-.635-.301-.985-.271c-1.088 0-1.753.834-1.753 2.237 0 1.428.671 2.28 1.753 2.28.347.041.696-.047.983-.247a1.43 1.43 0 0 0 .573-.835h1.263c-.083.667-.424 1.274-.949 1.694a2.58 2.58 0 0 1-1.863.55 3.04 3.04 0 0 1-1.283-.242 3.03 3.03 0 0 1-1.062-.76 3.02 3.02 0 0 1-.745-2.44c-.058-.433-.021-.873.109-1.29a3.02 3.02 0 0 1 1.7-1.874 3.01 3.01 0 0 1 1.274-.234 2.6 2.6 0 0 1 2.819 2.279h-1.263zm2.553 2.571c0-1.185.883-1.869 2.449-1.966l1.784-.103v-.568c0-.696-.46-1.088-1.348-1.088-.725 0-1.228.266-1.372.732h-1.259c.133-1.131 1.197-1.857 2.691-1.857 1.651 0 2.582.822 2.582 2.213v4.499h-1.251v-.925h-.103c-.209.332-.502.603-.849.784s-.737.268-1.129.25a1.98 1.98 0 0 1-.82-.087c-.264-.086-.508-.226-.715-.412a1.99 1.99 0 0 1-.486-.666c-.113-.253-.173-.528-.174-.806zm4.233-.563v-.55l-1.608.103c-.907.06-1.318.369-1.318.949 0 .593.514.938 1.221.938.207.021.416 0 .615-.062s.384-.162.543-.296a1.57 1.57 0 0 0 .383-.485c.094-.186.15-.389.164-.597zm-2.068-5.261l1.518-2.08h1.524l-1.699 2.08h-1.343zm5.397 1.101h1.251v1.01h.097c.14-.351.388-.648.707-.849a1.79 1.79 0 0 1 1.071-.27c.195-.003.389.016.58.054v1.283a3.53 3.53 0 0 0-.725-.079c-.215-.019-.431.007-.634.076s-.391.18-.55.326a1.55 1.55 0 0 0-.37.521c-.085.197-.129.41-.127.625v3.888h-1.3v-6.585zm4.9 7.244h1.331c.11.478.659.787 1.536.787 1.083 0 1.724-.514 1.724-1.385v-1.264h-.097a2.22 2.22 0 0 1-.86.84c-.359.195-.765.287-1.172.266-1.681 0-2.722-1.299-2.722-3.271 0-2.008 1.052-3.326 2.735-3.326.418-.015.831.086 1.196.291a2.28 2.28 0 0 1 .871.87h.103v-1.052h1.246v6.64c0 1.506-1.18 2.461-3.042 2.461-1.646 0-2.71-.738-2.849-1.857zm4.615-4.033c0-1.312-.678-2.153-1.785-2.153-1.118 0-1.747.841-1.747 2.153s.629 2.153 1.747 2.153 1.785-.834 1.785-2.153zm2.971 1.512c0-1.185.882-1.869 2.449-1.966l1.784-.103v-.568c0-.695-.46-1.088-1.348-1.088-.726 0-1.229.266-1.373.732h-1.258c.133-1.131 1.197-1.857 2.691-1.857 1.651 0 2.582.822 2.582 2.213v4.499h-1.251v-.925h-.103c-.209.332-.502.603-.849.784s-.737.268-1.129.25a1.98 1.98 0 0 1-.82-.087c-.265-.086-.508-.226-.715-.411a1.99 1.99 0 0 1-.486-.667 1.98 1.98 0 0 1-.174-.806zm4.233-.563v-.55l-1.608.103c-.907.06-1.318.369-1.318.949 0 .593.514.938 1.221.938.207.021.416 0 .615-.062a1.56 1.56 0 0 0 .542-.296 1.57 1.57 0 0 0 .384-.485c.094-.186.15-.389.164-.597zm3.389-6.73h1.299v9.155h-1.299v-9.155zm3.106 5.86a3.13 3.13 0 0 1 .145-1.282c.138-.412.36-.792.652-1.113a3.12 3.12 0 0 1 4.617 0c.293.321.515.701.652 1.113a3.13 3.13 0 0 1 .145 1.282c.042.433-.007.87-.144 1.284a3.1 3.1 0 0 1-.651 1.115c-.293.322-.649.58-1.047.756s-.828.268-1.263.268a3.11 3.11 0 0 1-1.264-.268c-.398-.176-.755-.434-1.047-.756a3.11 3.11 0 0 1-.651-1.115c-.137-.414-.186-.851-.144-1.284zm4.874 0c0-1.427-.641-2.262-1.766-2.262s-1.765.835-1.765 2.262c0 1.439.635 2.267 1.765 2.267s1.766-.834 1.766-2.267zm12.222 1.517a2.67 2.67 0 0 1-1.08 1.471c-.522.348-1.149.502-1.773.434-.434.012-.865-.071-1.263-.243a2.99 2.99 0 0 1-1.045-.752 3 3 0 0 1-.632-1.121 3.01 3.01 0 0 1-.102-1.283 3.04 3.04 0 0 1 .104-1.286c.127-.416.341-.8.629-1.127a3.04 3.04 0 0 1 1.04-.764 3.02 3.02 0 0 1 1.263-.263c1.833 0 2.938 1.252 2.938 3.32v.453h-4.65v.073c-.02.242.01.485.089.714s.205.44.371.617a1.74 1.74 0 0 0 .588.415c.223.095.463.143.706.141.311.037.626-.019.905-.161a1.57 1.57 0 0 0 .661-.638h1.251zm-4.571-2.122h3.326c.016-.221-.014-.443-.088-.652a1.6 1.6 0 0 0-.345-.56c-.152-.16-.337-.287-.542-.373s-.424-.126-.646-.121c-.225-.003-.448.04-.656.124a1.69 1.69 0 0 0-.556.37c-.159.159-.285.348-.369.556s-.127.431-.124.656zm6.395-2.685h1.251v1.046h.097a1.98 1.98 0 0 1 1.966-1.173c.32-.024.642.024.941.141a2.16 2.16 0 0 1 .787.536 2.13 2.13 0 0 1 .477.823c.096.307.121.631.074.949v4.263h-1.3v-3.936c0-1.059-.46-1.585-1.421-1.585-.217-.01-.435.027-.636.109a1.54 1.54 0 0 0-.534.364 1.53 1.53 0 0 0-.332.554 1.52 1.52 0 0 0-.07.642v3.852h-1.3v-6.585zm16.744 4.807c-.177.602-.559 1.123-1.081 1.471s-1.149.502-1.773.434a2.98 2.98 0 0 1-1.263-.243c-.399-.172-.755-.428-1.044-.752s-.505-.706-.632-1.121-.162-.853-.103-1.283a3.04 3.04 0 0 1 3.037-3.44c1.832 0 2.937 1.252 2.937 3.32v.453h-4.65v.073a1.73 1.73 0 0 0 .09.714c.079.229.205.44.37.617a1.75 1.75 0 0 0 .588.415c.223.095.464.143.706.141.311.037.626-.019.905-.161a1.58 1.58 0 0 0 .662-.638h1.251zm-4.572-2.122h3.326c.017-.221-.013-.443-.088-.652a1.6 1.6 0 0 0-.344-.56 1.61 1.61 0 0 0-.542-.373 1.59 1.59 0 0 0-.646-.121 1.7 1.7 0 0 0-.657.124 1.69 1.69 0 0 0-.925.926c-.084.208-.127.431-.124.656zm6.456-5.255h1.299v9.155h-1.299v-9.155z" fill="#fff"/></g></svg>