<svg xmlns="http://www.w3.org/2000/svg" xmlns:xlink="http://www.w3.org/1999/xlink" width="175" height="59" fill="none" xmlns:v="https://vecta.io/nano"><style><![CDATA[.B{fill:#fff}.C{stroke:#fff}.D{stroke-width:.267}.E{stroke-miterlimit:13.3333}]]></style><mask id="A" maskUnits="userSpaceOnUse" x="0" y="0" width="175" height="59"><path d="M175 0H0v58.497h175V0z" class="B"/></mask><g mask="url(#A)"><path d="M161.064 0H13.944c-.536 0-1.066 0-1.601.003l-1.344.019C10.017.033 9.037.12 8.068.28s-1.904.473-2.78.917-1.672 1.029-2.367 1.724-1.279 1.493-1.723 2.37S.446 7.106.284 8.075s-.25 1.946-.262 2.928L0 12.349v33.803L.022 47.5c.012.982.099 1.96.262 2.928a9.63 9.63 0 0 0 .914 2.785 9.08 9.08 0 0 0 1.723 2.361 9.22 9.22 0 0 0 2.367 1.724 9.8 9.8 0 0 0 2.78.922c.969.159 1.949.246 2.931.259l1.344.015 1.601.003h147.12l1.585-.003 1.349-.015a19.49 19.49 0 0 0 2.924-.259c.971-.168 1.912-.479 2.791-.922a9.21 9.21 0 0 0 2.365-1.724c.696-.692 1.279-1.488 1.728-2.361a9.63 9.63 0 0 0 .905-2.785 19.68 19.68 0 0 0 .272-2.928l.006-1.348.011-1.599V13.946l-.011-1.597-.006-1.346a19.68 19.68 0 0 0-.272-2.928c-.158-.969-.464-1.907-.905-2.784-.903-1.759-2.334-3.191-4.093-4.094a9.88 9.88 0 0 0-2.791-.917c-.966-.161-1.944-.248-2.924-.259l-1.349-.018L161.064 0z" fill="#a6a6a6"/><path d="M12.35 57.217c-.446 0-.88-.005-1.322-.015a18.55 18.55 0 0 1-2.734-.239c-.843-.145-1.66-.415-2.423-.801-.756-.383-1.446-.885-2.043-1.487-.605-.594-1.11-1.284-1.492-2.042a8.35 8.35 0 0 1-.794-2.424 18.12 18.12 0 0 1-.244-2.742l-.021-1.335V12.349l.021-1.308c.011-.917.092-1.833.242-2.738a8.43 8.43 0 0 1 .795-2.43A7.84 7.84 0 0 1 3.82 3.828a8.15 8.15 0 0 1 2.05-1.495c.762-.385 1.577-.653 2.418-.796.907-.148 1.824-.228 2.743-.24l1.32-.017h150.291l1.336.018c.91.011 1.819.09 2.717.238.85.144 1.674.414 2.444.801a8.18 8.18 0 0 1 3.532 3.539c.381.76.645 1.573.782 2.412.152.912.237 1.835.255 2.759l.004 1.302.011 1.597v30.607l-.011 1.572-.006 1.36a18.65 18.65 0 0 1-.25 2.71c-.136.85-.403 1.674-.79 2.442a7.98 7.98 0 0 1-1.485 2.027 7.9 7.9 0 0 1-2.046 1.495c-.768.389-1.591.66-2.44.804a18.27 18.27 0 0 1-2.733.239l-1.313.015-1.585.003-148.714-.003z" fill="#000"/><path d="M135.317 40.158h2.268V25.005h-2.268v15.153zm20.324-9.709l-2.631 6.533h-.091l-2.722-6.533h-2.45l3.992 9.164-2.268 5.081h2.359L158 30.449h-2.359zm-12.793 7.985c-.726 0-1.815-.363-1.815-1.27 0-1.18 1.27-1.634 2.359-1.634.998 0 1.452.182 2.087.545-.182 1.361-1.361 2.359-2.631 2.359zm.272-8.257c-1.633 0-3.357.726-3.992 2.359l1.996.817c.453-.817 1.27-1.089 2.087-1.089 1.179 0 2.359.726 2.359 1.905v.182c-.454-.272-1.271-.545-2.359-.545-2.178 0-4.356 1.18-4.356 3.448 0 1.996 1.815 3.357 3.72 3.357a3.36 3.36 0 0 0 2.904-1.451h.091v.998h2.177v-5.807c-.091-2.722-2.087-4.174-4.627-4.174zm-13.973 2.178h-3.176v-5.172h3.176c1.724 0 2.631 1.361 2.631 2.631 0 1.089-.907 2.541-2.631 2.541zm-.091-7.35h-5.444v15.153h2.269v-5.716h3.175c2.541 0 4.991-1.815 4.991-4.719s-2.45-4.718-4.991-4.718zM99.568 38.434c-1.542 0-2.903-1.27-2.903-3.085s1.27-3.176 2.903-3.176c1.543 0 2.722 1.361 2.722 3.176.091 1.815-1.179 3.085-2.722 3.085zm2.632-7.077c-.545-.635-1.543-1.18-2.813-1.18-2.541 0-4.9 2.268-4.9 5.172s2.359 5.081 4.9 5.081c1.27 0 2.177-.545 2.722-1.18h.091v.726c0 1.996-1.089 2.994-2.722 2.994-1.361 0-2.269-.998-2.632-1.814l-1.996.907c.545 1.361 2.087 3.085 4.537 3.085 2.631 0 4.899-1.542 4.899-5.353v-9.346h-2.177v.908h.091zm3.72 8.801h2.268V25.005h-2.268v15.153zm5.534-4.991c-.09-1.996 1.543-2.994 2.722-2.994.908 0 1.633.454 1.906 1.089l-4.628 1.905zm7.077-1.724c-.453-1.179-1.724-3.266-4.445-3.266-2.632 0-4.809 2.087-4.809 5.172 0 2.903 2.177 5.172 5.081 5.172 2.359 0 3.72-1.452 4.264-2.269l-1.724-1.179c-.544.816-1.361 1.452-2.54 1.452s-1.996-.545-2.45-1.543l6.896-2.813-.273-.726zM63.729 31.72v2.177h5.263c-.182 1.27-.545 2.087-1.18 2.722-.726.726-1.905 1.633-3.992 1.633-3.176 0-5.716-2.631-5.716-5.807s2.54-5.806 5.716-5.806c1.724 0 2.994.725 3.901 1.542l1.543-1.542c-1.271-1.271-3.085-2.178-5.444-2.178-4.446 0-8.075 3.629-8.075 7.984s3.72 7.985 8.075 7.985c2.359 0 4.173-.817 5.534-2.268 1.452-1.452 1.906-3.448 1.906-5.081 0-.545 0-.998-.091-1.361h-7.44zm13.338 6.714c-1.543 0-2.904-1.27-2.904-3.085s1.361-3.085 2.904-3.085 2.903 1.27 2.903 3.085-1.361 3.085-2.903 3.085zm0-8.257c-2.813 0-5.172 2.178-5.172 5.172s2.359 5.172 5.172 5.172 5.171-2.178 5.171-5.172-2.268-5.172-5.171-5.172zm11.251 8.257c-1.543 0-2.904-1.27-2.904-3.085s1.361-3.085 2.904-3.085 2.903 1.27 2.903 3.085-1.27 3.085-2.903 3.085zm0-8.257c-2.813 0-5.172 2.178-5.172 5.172s2.359 5.172 5.172 5.172 5.171-2.178 5.171-5.172-2.268-5.172-5.171-5.172z" class="B"/><path d="M18.544 13.029c-.363.363-.544.907-.544 1.724v26.766c0 .726.181 1.361.544 1.724l.091.09 14.971-14.97v-.182V28L18.544 13.029z" fill="url(#B)"/><path d="M33.606 27.909v.181.182l4.99 4.99.091-.091 5.897-3.357c1.724-.998 1.724-2.54 0-3.538l-5.806-3.357h-.182l-4.99 4.99z" fill="url(#C)"/><path d="M18.544 43.152c.545.544 1.452.635 2.541.091l17.693-10.072-5.081-5.081-15.153 15.062z" fill="url(#D)"/><path d="M18.544 13.029L33.606 28.09l5.081-5.081-17.602-10.071c-.454-.272-.907-.363-1.361-.363a1.18 1.18 0 0 0-1.18.454z" fill="url(#E)"/><g opacity=".2"><path d="M38.622 33.052l-17.602 9.98c-.998.545-1.905.545-2.449 0l-.091.091.091.091c.544.544 1.451.544 2.449 0l17.693-10.072-.091-.09z" fill="#000"/></g><g opacity=".12"><path d="M18.577 42.954c-.363-.363-.545-.907-.545-1.724v.181c0 .726.182 1.361.545 1.724v-.181z" fill="#000"/></g><g opacity=".12"><path d="M44.689 29.634l-6.08 3.448.091.091 5.898-3.358c.907-.453 1.361-1.088 1.361-1.724-.091.545-.545 1.089-1.27 1.543z" fill="#000"/></g><g opacity=".25" class="B"><path d="M21.097 13.098l23.591 13.429c.725.453 1.179.998 1.27 1.542 0-.635-.454-1.27-1.27-1.724L21.097 12.917c-1.724-.998-3.085-.182-3.085 1.815v.181c0-1.996 1.361-2.813 3.085-1.815z"/></g><use xlink:href="#F" class="B"/><use xlink:href="#F" class="C D E"/><path d="M63.094 12.303h.907v7.258h-.907v-7.258z" class="B C D E"/><use xlink:href="#G" class="B"/><use xlink:href="#G" class="C D E"/><use xlink:href="#H" class="B"/><use xlink:href="#H" class="C D E"/><use xlink:href="#I" class="B"/><use xlink:href="#I" class="C D E"/><use xlink:href="#J" class="B"/><use xlink:href="#J" class="C D E"/><path d="M92.945 12.303h.907v7.258h-.907v-7.258z" class="B C D E"/><use xlink:href="#K" class="B"/><use xlink:href="#K" class="C D E"/><path d="M101.783 19.561v-7.258h.908v6.351h3.175v.907h-4.083z" class="B"/><path d="M101.783 19.561v-7.258h.908v6.351h3.175v.907h-4.083z" class="C D E"/><use xlink:href="#L" class="B"/><use xlink:href="#L" class="C D E"/><use xlink:href="#M" class="B"/><use xlink:href="#M" class="C D E"/><use xlink:href="#N" class="B"/><use xlink:href="#N" class="C D E"/></g><defs><linearGradient id="B" x1="32.295" y1="14.446" x2="11.993" y2="34.749" gradientUnits="userSpaceOnUse"><stop stop-color="#00a0ff"/><stop offset=".007" stop-color="#00a1ff"/><stop offset=".26" stop-color="#00beff"/><stop offset=".512" stop-color="#00d2ff"/><stop offset=".76" stop-color="#00dfff"/><stop offset="1" stop-color="#00e3ff"/></linearGradient><linearGradient id="C" x1="46.841" y1="28.075" x2="17.569" y2="28.075" gradientUnits="userSpaceOnUse"><stop stop-color="#ffe000"/><stop offset=".409" stop-color="#ffbd00"/><stop offset=".775" stop-color="orange"/><stop offset="1" stop-color="#ff9c00"/></linearGradient><linearGradient id="D" x1="35.974" y1="30.797" x2="8.442" y2="58.329" gradientUnits="userSpaceOnUse"><stop stop-color="#ff3a44"/><stop offset="1" stop-color="#c31162"/></linearGradient><linearGradient id="E" x1="14.796" y1="4.085" x2="27.091" y2="16.379" gradientUnits="userSpaceOnUse"><stop stop-color="#32a071"/><stop offset=".069" stop-color="#2da771"/><stop offset=".476" stop-color="#15cf74"/><stop offset=".801" stop-color="#06e775"/><stop offset="1" stop-color="#00f076"/></linearGradient><path id="F" d="M56.789 18.688h1.27c.817 0 1.543-.272 1.996-.726s.726-1.179.726-1.996-.272-1.542-.726-1.996-1.179-.726-1.996-.726h-1.27v5.444zm-.907.907v-7.258h2.177c1.089 0 1.996.363 2.722.998s.998 1.542.998 2.631-.363 1.905-.998 2.631c-.635.635-1.542.998-2.722.998h-2.177z"/><path id="G" d="M67.7 19.712c-.545 0-.998-.181-1.543-.544s-.816-.817-.998-1.452l.817-.363c.091.363.272.726.635.998.272.272.635.454 1.089.454.363 0 .726-.091.998-.363.272-.181.454-.544.454-.907s-.182-.726-.454-.908-.726-.453-1.361-.635-1.089-.453-1.452-.816-.454-.726-.454-1.271.182-.998.636-1.361S66.974 12 67.7 12c.635 0 1.089.181 1.542.454.363.272.635.635.726.998l-.816.363c-.182-.091-.273-.273-.545-.454s-.544-.272-.907-.272a1.54 1.54 0 0 0-.908.272c-.272.181-.362.454-.362.726s.09.544.362.726.545.363.999.544c.362.091.635.182.907.363.272.091.454.272.726.454s.453.363.544.635.182.544.182.907-.091.635-.182.907c-.181.273-.363.454-.544.636-.272.181-.454.272-.817.363-.272.09-.635.09-.907.09z"/><path id="H" d="M72.4 15.722h1.542c.363 0 .726-.091.908-.363.272-.272.362-.545.362-.908s-.09-.635-.362-.907-.545-.363-.908-.363H72.4v2.541zm0 3.901h-.908v-7.258h2.45c.635 0 1.18.181 1.633.635s.636.907.636 1.542-.182 1.18-.636 1.543c-.453.453-.998.635-1.633.635H72.4v2.903z"/><path id="I" d="M78.75 18.09c.545.544 1.18.816 1.996.816s1.452-.272 1.996-.816.817-1.271.817-2.087-.272-1.543-.817-2.087-1.179-.817-1.996-.817a2.67 2.67 0 0 0-1.996.817c-.544.544-.816 1.27-.816 2.087s.272 1.542.816 2.087zm4.628.544c-.726.726-1.634 1.089-2.632 1.089a3.63 3.63 0 0 1-2.631-1.089c-.726-.726-1.089-1.633-1.089-2.722s.363-1.996 1.089-2.722a3.63 3.63 0 0 1 2.631-1.089c1.089 0 1.906.363 2.632 1.089s1.088 1.633 1.088 2.722c-.09 1.089-.453 1.996-1.088 2.722z"/><path id="J" d="M85.733 19.561v-7.258h1.179l3.539 5.625v-1.361-4.264h.907v7.258h-.998l-3.72-5.897v1.361 4.536h-.907z"/><path id="K" d="M96.544 18.688h1.814c.363 0 .635-.091.908-.363.181-.272.362-.544.362-.817s-.09-.544-.362-.816-.545-.363-.908-.363h-1.814v2.359zm0-3.266h1.724c.362 0 .635-.091.816-.363s.363-.454.363-.726-.091-.545-.272-.726c-.182-.272-.454-.363-.817-.363h-1.814v2.178zm-.998 4.173v-7.258h2.631c.544 0 1.089.181 1.451.544.454.363.636.817.636 1.452 0 .363-.091.635-.273.907s-.453.454-.725.635c.362.091.635.363.907.635s.363.635.363.998c0 .636-.182 1.089-.635 1.452a2.29 2.29 0 0 1-1.543.545h-2.812v.09z"/><path id="L" d="M111.259 13.267h-3.266v2.268h2.994v.908h-2.994v2.268h3.266v.907h-4.264V12.36h4.264v.907z"/><path id="M" d="M119.444 13.267h-3.267v2.268h2.995v.908h-2.995v2.268h3.267v.907h-4.265V12.36h4.265v.907z"/><path id="N" d="M120.901 19.561v-7.258h1.18l3.538 5.625v-1.361-4.264h.908v7.258h-.999l-3.72-5.897v1.361 4.536h-.907z"/></defs></svg>