<svg version="1.1" id="Layer_1" xmlns="http://www.w3.org/2000/svg" xmlns:xlink="http://www.w3.org/1999/xlink" x="0px" y="0px" width="100%" viewBox="0 0 1024 1024" enable-background="new 0 0 1024 1024" xml:space="preserve">

<path fill="#FEC524" opacity="1.000000" stroke="none" d="
M650.603882,860.686707 
	C630.286133,868.303223 609.894226,874.217957 588.907532,878.060608 
	C555.194824,884.233215 521.283447,886.456665 487.032654,884.315063 
	C455.642365,882.352295 425.026215,876.618225 395.101166,867.066467 
	C334.292023,847.656982 282.416382,814.195007 239.154999,767.379272 
	C205.829575,731.315918 179.577713,690.698059 162.120819,644.687683 
	C149.491898,611.402161 141.760223,577.013489 138.624023,541.436096 
	C135.886826,510.384979 136.471924,479.549194 141.167389,448.834351 
	C148.548630,400.550903 165.211197,355.589172 190.770264,313.921722 
	C215.075150,274.298920 245.914734,240.562805 282.609497,212.191513 
	C321.134308,182.405319 364.130798,161.579803 411.102448,148.730942 
	C447.160614,138.867386 483.802399,134.041840 521.153503,135.061462 
	C557.899597,136.064590 593.973755,141.152603 629.183899,152.324158 
	C668.926758,164.933823 705.495789,183.613327 739.001953,208.219086 
	C762.826355,225.714905 784.286255,245.855682 803.413513,268.485870 
	C824.175537,293.050293 841.415710,319.826294 854.957092,348.964905 
	C870.616394,382.660980 881.088196,417.865723 886.244324,454.742218 
	C889.911011,480.966095 890.291443,507.307007 888.705383,533.524780 
	C885.570007,585.355103 873.209778,635.019409 849.217957,681.392517 
	C833.220825,712.312866 813.278564,740.463013 789.631775,766.069702 
	C766.772644,790.823608 740.940491,811.883545 712.535950,829.858826 
	C693.067627,842.179077 672.404724,852.156372 650.603882,860.686707 
M316.009308,739.507446 
	C324.307556,745.848572 332.333588,752.590027 340.956238,758.454163 
	C364.697296,774.600159 390.097137,787.388916 417.469330,796.428650 
	C441.683105,804.425354 466.410858,809.886597 491.721497,811.710327 
	C507.409912,812.840759 523.385986,812.350464 539.052429,810.783630 
	C556.618774,809.026794 574.200928,806.164429 591.381348,802.109863 
	C616.858704,796.097290 641.018005,786.207520 663.763794,773.089539 
	C680.781677,763.274963 697.033752,752.289795 711.405640,738.893127 
	C721.705383,729.292297 731.336243,718.938782 740.862244,708.551270 
	C755.850464,692.207581 767.745728,673.611206 778.285278,654.212463 
	C789.420532,633.717407 798.410950,612.267578 804.957031,589.815491 
	C811.154785,568.558167 814.899353,546.825806 815.812195,524.802185 
	C816.836426,500.091064 815.898987,475.446777 811.243286,450.911621 
	C805.987671,423.215393 796.905518,397.050537 783.738525,372.271698 
	C773.283142,352.595856 762.044312,333.292969 746.545288,317.078033 
	C731.991699,301.852295 717.461670,286.458313 701.575378,272.691498 
	C684.497253,257.891876 664.825562,246.478333 644.371887,236.784622 
	C614.790405,222.764938 583.750122,213.649933 551.129822,209.865875 
	C532.141113,207.663147 513.182495,205.376724 494.114349,208.043839 
	C477.261139,210.401154 460.267151,212.386841 443.728424,216.228821 
	C406.071716,224.976547 371.550171,241.305954 340.172485,263.724487 
	C319.639557,278.394745 300.727997,295.022919 284.518219,314.707184 
	C268.621307,334.011505 254.649170,354.471893 243.243713,376.651886 
	C233.954849,394.715698 226.681488,413.621429 221.379181,433.271820 
	C215.880707,453.649231 212.167038,474.369385 211.161423,495.407440 
	C210.225891,514.979309 210.380783,534.659180 214.123276,554.011108 
	C217.138214,569.600891 220.373047,585.185730 224.451462,600.522522 
	C229.339127,618.902588 237.714355,635.943176 246.341660,652.859619 
	C258.603638,676.903198 274.660797,698.148010 293.185272,717.586365 
	C300.291046,725.042664 308.043365,731.882812 316.009308,739.507446 
z" data-index="1"></path>
<path fill="#F6B30E" opacity="1.000000" stroke="none" d="
M315.755188,739.255615 
	C308.043365,731.882812 300.291046,725.042664 293.185272,717.586365 
	C274.660797,698.148010 258.603638,676.903198 246.341660,652.859619 
	C237.714355,635.943176 229.339127,618.902588 224.451462,600.522522 
	C220.373047,585.185730 217.138214,569.600891 214.123276,554.011108 
	C210.380783,534.659180 210.225891,514.979309 211.161423,495.407440 
	C212.167038,474.369385 215.880707,453.649231 221.379181,433.271820 
	C226.681488,413.621429 233.954849,394.715698 243.243713,376.651886 
	C254.649170,354.471893 268.621307,334.011505 284.518219,314.707184 
	C300.727997,295.022919 319.639557,278.394745 340.172485,263.724487 
	C371.550171,241.305954 406.071716,224.976547 443.728424,216.228821 
	C460.267151,212.386841 477.261139,210.401154 494.114349,208.043839 
	C513.182495,205.376724 532.141113,207.663147 551.129822,209.865875 
	C583.750122,213.649933 614.790405,222.764938 644.371887,236.784622 
	C664.825562,246.478333 684.497253,257.891876 701.575378,272.691498 
	C717.461670,286.458313 731.991699,301.852295 746.545288,317.078033 
	C762.044312,333.292969 773.283142,352.595856 783.738525,372.271698 
	C796.905518,397.050537 805.987671,423.215393 811.243286,450.911621 
	C815.898987,475.446777 816.836426,500.091064 815.812195,524.802185 
	C814.899353,546.825806 811.154785,568.558167 804.957031,589.815491 
	C798.410950,612.267578 789.420532,633.717407 778.285278,654.212463 
	C767.745728,673.611206 755.850464,692.207581 740.862244,708.551270 
	C731.336243,718.938782 721.705383,729.292297 711.405640,738.893127 
	C697.033752,752.289795 680.781677,763.274963 663.763794,773.089539 
	C641.018005,786.207520 616.858704,796.097290 591.381348,802.109863 
	C574.200928,806.164429 556.618774,809.026794 539.052429,810.783630 
	C523.385986,812.350464 507.409912,812.840759 491.721497,811.710327 
	C466.410858,809.886597 441.683105,804.425354 417.469330,796.428650 
	C390.097137,787.388916 364.697296,774.600159 340.956238,758.454163 
	C332.333588,752.590027 324.307556,745.848572 315.755188,739.255615 
M582.655334,580.099548 
	C572.172607,579.990906 571.183167,579.218689 569.456177,568.860779 
	C568.993713,566.086975 569.299927,563.185242 568.840027,560.410706 
	C568.213318,556.629883 567.480042,552.623108 563.091980,551.247620 
	C559.010742,549.968201 555.861572,552.113403 553.436646,554.989441 
	C550.122803,558.919922 547.158936,563.149109 544.105530,567.294800 
	C533.844666,581.226562 523.622681,595.186951 513.361755,609.118652 
	C506.583954,618.321167 506.318604,623.269348 512.589661,632.709351 
	C515.994568,637.834839 519.700317,642.761658 523.307007,647.751587 
	C532.763855,660.835205 542.131653,673.985718 551.784912,686.923096 
	C554.259827,690.239868 556.876587,694.976685 561.994385,693.452209 
	C567.435730,691.831482 567.469116,686.399292 567.667664,681.756531 
	C567.902283,676.270325 567.655945,670.765198 567.700928,665.268860 
	C567.762024,657.794250 569.909485,655.964294 577.384399,656.117920 
	C591.369629,656.405212 605.362366,656.754944 619.345947,656.584473 
	C636.708191,656.372803 651.591248,650.422424 660.545044,634.740295 
	C673.324890,612.356812 685.449341,589.597900 697.756958,566.946838 
	C701.976501,559.181091 703.653564,550.668884 700.583191,542.360352 
	C697.549255,534.150146 693.262268,526.364197 689.111755,518.613403 
	C679.999268,501.596619 670.739136,484.656158 661.309937,467.812927 
	C656.722107,459.617706 650.671082,457.517426 642.463013,461.884583 
	C628.221985,469.461670 614.111145,477.334686 600.348694,485.743042 
	C590.254639,491.910126 588.903564,500.428375 595.357971,510.422211 
	C601.132263,519.363037 607.085022,528.189026 612.828918,537.149109 
	C617.672546,544.704834 622.873169,552.104248 626.922180,560.077393 
	C631.332336,568.761597 626.662903,578.007446 616.999512,579.064148 
	C605.966797,580.270569 594.753662,579.827698 582.655334,580.099548 
M445.259552,525.507568 
	C444.852783,522.159729 445.051727,518.594543 443.940704,515.499512 
	C436.860596,495.775726 429.315216,476.218445 422.285278,456.477356 
	C418.155396,444.880127 414.361359,442.322449 402.172028,444.551880 
	C386.310699,447.452911 370.425659,450.234406 354.605011,453.343140 
	C346.800751,454.876709 339.023865,456.729370 331.446381,459.111359 
	C329.533752,459.712555 327.270752,462.912170 327.290283,464.896851 
	C327.309631,466.858582 329.624573,469.561249 331.623566,470.571411 
	C335.136169,472.346558 339.182343,473.057648 342.993256,474.252106 
	C352.780090,477.319641 354.193359,480.468719 349.216583,489.545685 
	C340.973846,504.579346 332.487427,519.479431 324.102478,534.435120 
	C317.384644,546.417236 316.672089,558.347046 324.161652,570.348389 
	C327.242889,575.285828 330.064819,580.388794 332.907562,585.470764 
	C342.332062,602.319214 351.395508,619.379517 361.210968,635.996094 
	C368.895050,649.004456 381.146851,655.646790 396.056641,655.954224 
	C420.695557,656.462524 445.353607,656.347717 469.999420,656.092468 
	C481.869507,655.969543 486.030334,651.177734 485.826508,639.227112 
	C485.599274,625.902893 485.158081,612.582336 484.915436,599.258301 
	C484.654083,584.906921 479.890900,580.090515 465.596100,580.067871 
	C446.764557,580.038086 427.931152,580.209961 409.101929,579.997864 
	C395.054230,579.839600 388.069733,570.409302 393.463135,558.287781 
	C398.665161,546.596313 404.851105,535.330627 410.882294,524.025940 
	C413.333374,519.431763 416.597290,518.733276 421.423065,521.153320 
	C425.587372,523.241760 429.523224,525.801575 433.742737,527.759399 
	C437.624207,529.560303 441.711823,530.572876 445.259552,525.507568 
M493.878815,381.458893 
	C500.592102,368.237457 514.004211,369.779388 520.331848,379.295441 
	C527.511414,390.092804 534.041809,401.324188 540.768188,412.419128 
	C542.939636,416.000824 542.216675,419.110657 538.588196,421.390228 
	C534.788025,423.777557 530.901306,426.037170 527.198242,428.566132 
	C524.147766,430.649353 521.461365,433.814667 523.246582,437.337463 
	C524.502380,439.815460 527.831848,442.272491 530.600098,442.790649 
	C552.163513,446.826935 573.796570,450.505188 595.447815,454.052063 
	C606.403076,455.846741 613.584656,451.754150 617.042419,441.075531 
	C623.489441,421.165161 629.456238,401.096436 635.358582,381.015930 
	C636.154480,378.307983 635.951721,375.022980 635.280273,372.228973 
	C634.059570,367.149811 630.323730,365.667572 625.748230,368.192871 
	C622.262451,370.116699 619.037598,372.507233 615.643738,374.604584 
	C608.006348,379.324341 603.746887,378.290314 599.302429,370.513794 
	C592.614563,358.811768 586.036316,347.047119 579.383850,335.324768 
	C571.279419,321.043884 558.929810,312.757263 542.636292,312.302917 
	C518.673340,311.634705 494.661652,311.612488 470.702209,312.344299 
	C456.523346,312.777374 444.539551,319.443634 436.942261,331.686615 
	C429.063049,344.383972 422.187042,357.707275 414.966431,370.808716 
	C409.912354,379.979126 404.725952,389.095886 400.162476,398.509949 
	C397.560760,403.877045 399.600281,409.547882 404.721527,412.237762 
	C420.034180,420.280548 435.476105,428.078766 450.915955,435.876678 
	C454.832520,437.854736 458.855743,437.509216 462.081879,434.496857 
	C464.589417,432.155426 467.007385,429.493683 468.693207,426.534515 
	C477.092102,411.791870 485.235687,396.903778 493.878815,381.458893 
z" data-index="2"></path>
<path fill="#F7F7F4" opacity="1.000000" stroke="none" d="
M583.137146,580.100586 
	C594.753662,579.827698 605.966797,580.270569 616.999512,579.064148 
	C626.662903,578.007446 631.332336,568.761597 626.922180,560.077393 
	C622.873169,552.104248 617.672546,544.704834 612.828918,537.149109 
	C607.085022,528.189026 601.132263,519.363037 595.357971,510.422211 
	C588.903564,500.428375 590.254639,491.910126 600.348694,485.743042 
	C614.111145,477.334686 628.221985,469.461670 642.463013,461.884583 
	C650.671082,457.517426 656.722107,459.617706 661.309937,467.812927 
	C670.739136,484.656158 679.999268,501.596619 689.111755,518.613403 
	C693.262268,526.364197 697.549255,534.150146 700.583191,542.360352 
	C703.653564,550.668884 701.976501,559.181091 697.756958,566.946838 
	C685.449341,589.597900 673.324890,612.356812 660.545044,634.740295 
	C651.591248,650.422424 636.708191,656.372803 619.345947,656.584473 
	C605.362366,656.754944 591.369629,656.405212 577.384399,656.117920 
	C569.909485,655.964294 567.762024,657.794250 567.700928,665.268860 
	C567.655945,670.765198 567.902283,676.270325 567.667664,681.756531 
	C567.469116,686.399292 567.435730,691.831482 561.994385,693.452209 
	C556.876587,694.976685 554.259827,690.239868 551.784912,686.923096 
	C542.131653,673.985718 532.763855,660.835205 523.307007,647.751587 
	C519.700317,642.761658 515.994568,637.834839 512.589661,632.709351 
	C506.318604,623.269348 506.583954,618.321167 513.361755,609.118652 
	C523.622681,595.186951 533.844666,581.226562 544.105530,567.294800 
	C547.158936,563.149109 550.122803,558.919922 553.436646,554.989441 
	C555.861572,552.113403 559.010742,549.968201 563.091980,551.247620 
	C567.480042,552.623108 568.213318,556.629883 568.840027,560.410706 
	C569.299927,563.185242 568.993713,566.086975 569.456177,568.860779 
	C571.183167,579.218689 572.172607,579.990906 583.137146,580.100586 
z" data-index="3"></path>
<path fill="#F7F7F4" opacity="1.000000" stroke="none" d="
M445.080902,525.872559 
	C441.711823,530.572876 437.624207,529.560303 433.742737,527.759399 
	C429.523224,525.801575 425.587372,523.241760 421.423065,521.153320 
	C416.597290,518.733276 413.333374,519.431763 410.882294,524.025940 
	C404.851105,535.330627 398.665161,546.596313 393.463135,558.287781 
	C388.069733,570.409302 395.054230,579.839600 409.101929,579.997864 
	C427.931152,580.209961 446.764557,580.038086 465.596100,580.067871 
	C479.890900,580.090515 484.654083,584.906921 484.915436,599.258301 
	C485.158081,612.582336 485.599274,625.902893 485.826508,639.227112 
	C486.030334,651.177734 481.869507,655.969543 469.999420,656.092468 
	C445.353607,656.347717 420.695557,656.462524 396.056641,655.954224 
	C381.146851,655.646790 368.895050,649.004456 361.210968,635.996094 
	C351.395508,619.379517 342.332062,602.319214 332.907562,585.470764 
	C330.064819,580.388794 327.242889,575.285828 324.161652,570.348389 
	C316.672089,558.347046 317.384644,546.417236 324.102478,534.435120 
	C332.487427,519.479431 340.973846,504.579346 349.216583,489.545685 
	C354.193359,480.468719 352.780090,477.319641 342.993256,474.252106 
	C339.182343,473.057648 335.136169,472.346558 331.623566,470.571411 
	C329.624573,469.561249 327.309631,466.858582 327.290283,464.896851 
	C327.270752,462.912170 329.533752,459.712555 331.446381,459.111359 
	C339.023865,456.729370 346.800751,454.876709 354.605011,453.343140 
	C370.425659,450.234406 386.310699,447.452911 402.172028,444.551880 
	C414.361359,442.322449 418.155396,444.880127 422.285278,456.477356 
	C429.315216,476.218445 436.860596,495.775726 443.940704,515.499512 
	C445.051727,518.594543 444.852783,522.159729 445.080902,525.872559 
z" data-index="4"></path>
<path fill="#F7F7F4" opacity="1.000000" stroke="none" d="
M493.673950,381.762878 
	C485.235687,396.903778 477.092102,411.791870 468.693207,426.534515 
	C467.007385,429.493683 464.589417,432.155426 462.081879,434.496857 
	C458.855743,437.509216 454.832520,437.854736 450.915955,435.876678 
	C435.476105,428.078766 420.034180,420.280548 404.721527,412.237762 
	C399.600281,409.547882 397.560760,403.877045 400.162476,398.509949 
	C404.725952,389.095886 409.912354,379.979126 414.966431,370.808716 
	C422.187042,357.707275 429.063049,344.383972 436.942261,331.686615 
	C444.539551,319.443634 456.523346,312.777374 470.702209,312.344299 
	C494.661652,311.612488 518.673340,311.634705 542.636292,312.302917 
	C558.929810,312.757263 571.279419,321.043884 579.383850,335.324768 
	C586.036316,347.047119 592.614563,358.811768 599.302429,370.513794 
	C603.746887,378.290314 608.006348,379.324341 615.643738,374.604584 
	C619.037598,372.507233 622.262451,370.116699 625.748230,368.192871 
	C630.323730,365.667572 634.059570,367.149811 635.280273,372.228973 
	C635.951721,375.022980 636.154480,378.307983 635.358582,381.015930 
	C629.456238,401.096436 623.489441,421.165161 617.042419,441.075531 
	C613.584656,451.754150 606.403076,455.846741 595.447815,454.052063 
	C573.796570,450.505188 552.163513,446.826935 530.600098,442.790649 
	C527.831848,442.272491 524.502380,439.815460 523.246582,437.337463 
	C521.461365,433.814667 524.147766,430.649353 527.198242,428.566132 
	C530.901306,426.037170 534.788025,423.777557 538.588196,421.390228 
	C542.216675,419.110657 542.939636,416.000824 540.768188,412.419128 
	C534.041809,401.324188 527.511414,390.092804 520.331848,379.295441 
	C514.004211,369.779388 500.592102,368.237457 493.673950,381.762878 
z" data-index="5"></path>
</svg>