<svg width="24" height="24" viewBox="0 0 24 24" fill="#4e5866" xmlns="http://www.w3.org/2000/svg">
<path fill-rule="evenodd" clip-rule="evenodd" d="M18.79 3.74399L14.576 4.46199C14.2655 3.94267 13.8052 3.52936 13.2556 3.27628C12.706 3.0232 12.0927 2.94216 11.4962 3.04381C10.8998 3.14546 10.3479 3.42504 9.91317 3.84587C9.47841 4.26671 9.18101 4.80913 9.06 5.40199L3.873 6.28499C3.6115 6.32954 3.3784 6.47615 3.225 6.69257C3.07159 6.90899 3.01044 7.17748 3.055 7.43899C3.09956 7.70049 3.24617 7.93358 3.46259 8.08699C3.679 8.24039 3.9475 8.30154 4.209 8.25699L4.435 8.21799L2 13.495V13.715C2 15.873 3.862 17.5 6 17.5C8.138 17.5 10 15.874 10 13.714V13.494L7.337 7.72399L9.337 7.38399C9.68821 8.05875 10.2826 8.5749 11 8.82799V19H4V21H20V19H13V8.82999C13.5169 8.64722 13.9738 8.32633 14.3211 7.90215C14.6684 7.47798 14.8928 6.96675 14.97 6.42399L16.708 6.12799L14 11.995V12.215C14 14.373 15.862 16 18 16C20.138 16 22 14.374 22 12.214V11.994L19.104 5.71999L19.127 5.71599C19.2589 5.69671 19.3857 5.65126 19.4998 5.58229C19.6139 5.51332 19.713 5.42223 19.7914 5.31437C19.8698 5.20652 19.9258 5.08409 19.9562 4.95427C19.9865 4.82445 19.9906 4.68987 19.9682 4.55844C19.9458 4.42701 19.8974 4.30139 19.8257 4.18897C19.754 4.07654 19.6606 3.97958 19.5509 3.90379C19.4412 3.828 19.3175 3.77491 19.187 3.74763C19.0565 3.72036 18.9219 3.71946 18.791 3.74499M18 8.09999L16.563 11.214H19.437L18 8.09999ZM4.563 12.714L6 9.59999L7.437 12.714H4.563ZM12 6.99999C12.2652 6.99999 12.5196 6.89463 12.7071 6.70709C12.8946 6.51956 13 6.2652 13 5.99999C13 5.73477 12.8946 5.48042 12.7071 5.29288C12.5196 5.10534 12.2652 4.99999 12 4.99999C11.7348 4.99999 11.4804 5.10534 11.2929 5.29288C11.1054 5.48042 11 5.73477 11 5.99999C11 6.2652 11.1054 6.51956 11.2929 6.70709C11.4804 6.89463 11.7348 6.99999 12 6.99999Z" fill="#4e5866"/>
</svg>
